PathFileType	4	(X/Y/Z)	D:\TRACE\v60_Jaco2_6-2-23\BothDRS_Motion2_6-platform.trc
DataRate	CameraRate	NumFrames	NumMarkers	Units	OrigDataRate	OrigDataStartFrame	OrigNumFrames
100.00	100.00	      54	5	mm	100.00	3751	      7500
Frame#	Time	Left_Front			Right_Front			Left_Aft			Right_Aft			Post			
		X1	Y1	Z1	X2	Y2	Z2	X3	Y3	Z3	X4	Y4	Z4	X5	Y5	Z5	

3751	37.500	-767.43365	71.44582	-621.16974	802.58655	71.91182	-626.49457	-675.25433	-36.41412	508.74695	766.73315	-38.58745	518.60706	19.68595	1394.46179	-822.90295	
3752	37.510	-767.91107	71.34917	-621.30176	801.74780	71.72630	-626.53119	-675.76819	-36.23082	508.63708	765.83844	-38.16646	518.88159	18.61982	1394.00183	-822.54254	
3753	37.520	-769.17810	71.00677	-621.05884	801.04138	71.54996	-626.30481	-677.01404	-35.41271	508.80185	765.11926	-37.98736	518.65228	17.93765	1393.34106	-822.28540	
3754	37.530	-770.01733	70.62089	-621.38269	800.02466	70.85809	-626.64355	-677.78149	-35.25020	508.81885	764.48047	-37.83886	518.50812	16.99121	1392.66064	-821.52765	
3755	37.540	-770.92773	69.57776	-621.67291	799.23523	70.36889	-626.97217	-678.74915	-34.88456	508.58847	763.56586	-37.42066	518.59558	16.12127	1391.77588	-821.47620	
3756	37.550	-771.57483	68.72386	-621.69196	798.35016	70.07346	-627.02686	-680.19348	-34.09262	508.64526	762.40491	-36.93737	519.05481	14.89667	1391.18982	-822.30597	
3757	37.560	-772.59448	68.36708	-621.78046	797.38287	69.25586	-627.24170	-680.70605	-34.00987	508.46555	761.28644	-36.54150	518.13086	13.98660	1390.65564	-824.08429	
3758	37.570	-773.59735	67.98907	-622.07507	796.44110	68.77185	-627.41382	-681.39844	-33.80967	508.37384	760.82111	-36.23831	517.95740	13.31847	1389.76978	-826.17847	
3759	37.580	-774.59967	67.83528	-622.37012	795.76575	68.44483	-627.52441	-682.41376	-33.35292	508.45538	759.96387	-35.74790	517.79144	12.82062	1389.37817	-828.88281	
3760	37.590	-775.37512	67.08858	-622.33862	794.74731	67.83225	-627.65344	-683.24292	-32.78073	508.23831	759.06842	-35.42226	517.69604	11.44996	1388.73755	-831.91016	
3761	37.600	-776.17889	66.38810	-622.48834	793.68915	67.03291	-628.07031	-684.16815	-32.47078	508.05807	757.85272	-34.87827	517.58575	10.80818	1387.99390	-834.50500	
3762	37.610	-777.40369	65.65466	-622.73871	792.90784	66.53915	-628.05170	-684.98340	-32.29821	507.94171	756.57703	-34.49674	517.51959	9.61075	1387.33643	-837.01648	
3763	37.620	-778.41858	65.08418	-623.15985	791.51727	65.69868	-628.52386	-685.74597	-32.01119	507.95590	756.11505	-33.98963	517.37347	8.74055	1386.50818	-838.44525	
3764	37.630	-779.24689	64.36895	-623.08795	790.75671	65.37068	-628.46954	-687.26758	-30.89606	507.72372	754.88684	-33.57965	516.94690	8.10942	1385.67188	-840.13098	
3765	37.640	-780.06165	63.82690	-623.11957	789.88959	64.63095	-628.79395	-688.15179	-30.59188	507.78754	754.08044	-32.91154	516.87225	6.70937	1384.71704	-841.33722	
3766	37.650	-781.59393	63.13941	-623.69171	788.78632	63.71468	-629.10498	-689.09021	-29.86710	507.60574	753.01324	-32.19015	516.78156	5.14631	1383.57544	-842.75061	
3767	37.660	-782.47321	62.32188	-624.12122	787.77332	63.07587	-629.31683	-690.25323	-29.18957	507.58249	751.87921	-31.69303	516.60907	4.64244	1382.29382	-843.27655	
3768	37.670	-783.20862	61.14580	-624.21234	786.66290	62.00161	-629.56720	-691.34375	-28.61208	507.13470	750.75153	-31.07246	516.47754	3.87254	1381.08020	-843.87402	
3769	37.680	-784.16907	60.27356	-624.28717	785.68329	61.12548	-629.91632	-692.30084	-28.01809	507.11246	749.94757	-30.63597	516.20795	2.69714	1380.04272	-844.39093	
3770	37.690	-785.54724	59.63596	-624.73767	784.46936	60.42558	-630.20471	-693.21985	-27.35284	507.18146	748.67969	-29.88634	516.12079	1.33426	1378.51672	-845.60052	
3771	37.700	-786.59943	58.89791	-625.09338	783.78156	59.70145	-630.31091	-694.28546	-26.96669	506.88403	747.70349	-29.09582	515.97308	0.35438	1377.60181	-847.87866	
3772	37.710	-787.37146	57.70793	-625.31415	782.54932	58.63699	-630.69470	-695.47247	-26.07622	506.66736	746.45227	-28.50920	515.73560	-0.84051	1376.59631	-850.20331	
3773	37.720	-788.37976	56.59470	-625.57855	781.51965	57.57080	-631.02057	-696.30322	-25.67158	506.52631	745.75598	-27.93245	515.64813	-1.86835	1375.16663	-853.13275	
3774	37.730	-789.72577	55.97779	-626.06708	780.39880	56.51843	-631.34460	-697.61108	-24.99827	506.25882	744.57111	-27.27698	515.42957	-2.82812	1373.84705	-856.25677	
3775	37.740	-790.74542	54.99289	-626.12640	779.37653	55.56250	-631.35986	-698.66083	-24.23805	506.02069	743.35986	-26.53733	515.27765	-4.15374	1372.84839	-859.66602	
3776	37.750	-791.62695	53.91352	-626.32727	778.20135	54.75103	-631.60449	-699.57635	-23.51274	506.03247	742.15704	-25.61763	515.23578	-4.96389	1371.44897	-862.94574	
3777	37.760	-792.78082	52.93577	-626.83661	777.17468	53.81219	-632.22363	-700.79779	-22.67319	505.64175	741.47443	-24.82782	515.18604	-5.82358	1369.94604	-865.72736	
3778	37.770	-794.18298	51.75677	-627.05145	776.17651	52.64133	-632.51501	-701.85779	-21.87827	505.47723	740.56641	-24.15673	514.96655	-6.58325	1368.51160	-868.28296	
3779	37.780	-794.98218	50.66886	-627.60529	774.87811	51.33716	-632.93622	-703.00189	-21.02580	505.14560	739.33014	-23.30118	514.70917	-8.05219	1366.91589	-870.57269	
3780	37.790	-796.01740	49.64175	-627.84113	773.83728	50.12473	-633.04779	-703.86475	-20.75534	505.16769	738.07043	-22.45384	514.54321	-9.56891	1365.41650	-872.51953	
3781	37.800	-797.29712	48.19795	-628.21631	772.67535	49.19075	-633.56488	-705.10382	-19.69841	504.77594	736.96332	-21.64995	514.28540	-10.80532	1363.75586	-874.33496	
3782	37.810	-798.60864	47.23270	-628.37030	771.64789	48.04690	-633.79956	-706.28882	-18.87534	504.61896	735.88177	-20.70824	514.02411	-11.68937	1362.00537	-876.16547	
3783	37.820	-799.73987	46.26424	-628.93738	770.51520	47.02784	-634.04596	-707.26074	-17.82017	504.35693	734.76752	-19.78653	513.83704	-13.26326	1360.45056	-878.10516	
3784	37.830	-800.66724	45.02409	-629.38971	769.35760	45.69629	-634.55426	-708.57611	-17.08300	504.23538	733.37543	-18.75316	513.80530	-14.21132	1358.88818	-880.34808	
3785	37.840	-801.73499	43.40068	-629.82477	768.25830	44.62384	-634.94232	-709.67255	-16.19020	503.94980	732.46521	-17.99184	513.59497	-15.28963	1357.30188	-882.99457	
3786	37.850	-803.03540	42.53690	-629.68744	767.04083	43.35553	-635.14850	-710.81262	-15.32092	503.86865	731.06879	-17.28612	513.31030	-16.30865	1355.64783	-886.20691	
3787	37.860	-804.18188	41.52636	-630.21423	765.80774	42.08140	-635.63721	-712.01129	-14.42383	503.54465	730.06622	-16.46005	512.89392	-16.92414	1353.92969	-889.62933	
3788	37.870	-805.24591	40.00173	-630.62335	764.85266	41.04860	-635.84314	-713.02521	-13.58426	503.42197	729.16052	-15.35668	512.61499	-18.75791	1352.28223	-893.08606	
3789	37.880	-806.42792	38.82458	-630.81299	763.64136	39.73566	-636.26416	-714.25861	-12.59019	503.12701	728.03766	-14.52049	512.57745	-19.82092	1350.58130	-896.84967	
3790	37.890	-807.39795	37.72436	-631.40546	762.45435	38.41717	-636.76862	-715.47705	-11.64854	502.83600	726.92706	-13.62799	512.20978	-20.57952	1348.69470	-899.98932	
3791	37.900	-808.79132	36.72846	-631.63422	761.41394	37.11448	-637.06677	-716.73352	-10.86330	502.57953	725.56531	-12.63289	512.08673	-22.01283	1346.85071	-903.28870	
3792	37.910	-809.81305	35.27665	-632.10138	760.15985	35.63468	-637.36438	-718.04987	-9.89816	502.13809	724.57648	-11.62120	511.67435	-22.99799	1344.91687	-905.95905	
3793	37.920	-810.90656	33.48083	-632.50256	759.04492	33.91940	-637.77277	-718.97150	-8.83383	501.92557	723.34436	-10.56550	511.42606	-24.50561	1342.96594	-908.87531	
3794	37.930	-812.24249	31.90602	-632.69946	758.09753	32.81486	-637.98737	-720.19220	-7.84121	501.63016	722.38599	-9.48242	511.20703	-25.66980	1341.11877	-911.27496	
3795	37.940	-813.14777	30.70558	-632.97144	757.00671	31.56786	-638.45074	-721.51501	-6.66611	501.29779	720.83044	-8.53579	510.93668	-26.69256	1339.24768	-913.60101	
3796	37.950	-814.42053	29.59075	-633.57562	755.77020	30.29739	-639.04810	-722.81177	-5.38211	500.79211	720.05304	-7.53793	510.65939	-27.58167	1337.13135	-916.17145	
3797	37.960	-815.33441	28.20242	-633.76349	754.60791	28.80630	-639.25311	-723.78436	-4.79091	500.76328	718.53076	-6.67386	510.38223	-28.74347	1335.38794	-919.14435	
3798	37.970	-816.70599	26.79239	-634.05182	753.46356	27.49160	-639.32770	-724.98132	-3.77195	500.81641	717.81616	-5.58755	510.02878	-29.99381	1333.68201	-922.19403	
3799	37.980	-817.94855	25.44499	-634.54260	752.45953	26.18465	-639.95801	-725.69476	-3.41335	500.02271	716.64996	-4.60945	509.74188	-31.60269	1331.63550	-925.87811	
3800	37.990	-818.92810	23.90009	-634.76941	751.22382	24.92025	-640.41467	-726.59528	-2.75087	500.02289	715.52374	-3.62175	509.40363	-32.24881	1329.65674	-928.73773	
3801	38.000	-819.95221	22.75879	-635.44641	750.13531	23.40790	-640.55780	-727.76099	-1.46464	499.51450	714.34607	-2.57153	509.06461	-33.40239	1327.79028	-931.95233	
3802	38.010	-820.91455	21.54963	-635.73486	749.02905	22.00375	-640.92084	-729.02106	-0.45693	499.27927	713.18005	-1.63808	508.77429	-34.51151	1325.57239	-935.58228	
3803	38.020	-822.12183	19.99190	-635.90790	747.91669	20.68784	-641.39032	-730.04822	0.61586	498.91888	712.18518	-0.66729	508.51642	-35.91473	1323.63208	-938.75183	
3804	38.030	-823.33673	18.45019	-636.09430	747.08911	19.37121	-641.43719	-731.26587	1.53818	498.56165	710.99176	0.35824	508.20404	-36.77235	1321.60620	-941.80280	
